<?xml version="1.0" encoding="UTF-8" standalone="no"?>
<svg
   width="1696.000000"
   height="807.000000"
   viewBox="0 0 1696 807"
   fill="none"
   version="1.1"
   id="svg1"
   sodipodi:docname="footer-bg.svg"
   inkscape:version="1.4 (e7c3feb100, 2024-10-09)"
   xmlns:inkscape="http://www.inkscape.org/namespaces/inkscape"
   xmlns:sodipodi="http://sodipodi.sourceforge.net/DTD/sodipodi-0.dtd"
   xmlns="http://www.w3.org/2000/svg"
   xmlns:svg="http://www.w3.org/2000/svg">
  <sodipodi:namedview
     id="namedview1"
     pagecolor="#ffffff"
     bordercolor="#000000"
     borderopacity="0.25"
     inkscape:showpageshadow="2"
     inkscape:pageopacity="0.0"
     inkscape:pagecheckerboard="0"
     inkscape:deskcolor="#d1d1d1"
     inkscape:zoom="0.57118885"
     inkscape:cx="847.35548"
     inkscape:cy="403.54429"
     inkscape:window-width="1920"
     inkscape:window-height="1048"
     inkscape:window-x="0"
     inkscape:window-y="0"
     inkscape:window-maximized="1"
     inkscape:current-layer="svg1" />
  <desc
     id="desc1">
			Created with Pixso.
	</desc>
  <defs
     id="defs1">
    <clipPath
       clipPathUnits="userSpaceOnUse"
       id="clipPath1">
      <rect
         style="fill:#000000"
         id="rect2"
         width="1681.1445"
         height="810.86127"
         x="0"
         y="-3.7138686" />
    </clipPath>
    <clipPath
       clipPathUnits="userSpaceOnUse"
       id="clipPath2">
      <rect
         style="fill:#000000"
         id="rect3"
         width="1681.1445"
         height="810.86127"
         x="0"
         y="-3.7138686" />
    </clipPath>
    <clipPath
       clipPathUnits="userSpaceOnUse"
       id="clipPath3">
      <rect
         style="fill:#000000"
         id="rect4"
         width="1681.1445"
         height="810.86127"
         x="0"
         y="-3.7138686" />
    </clipPath>
  </defs>
  <path
     id="Rectangle 83"
     d="m 0,38 431.32,69.03 c 8.07,1.29 16.34,0.58 24.07,-2.06 L 744.95,5.99 c 11.5,-3.93 23.82,-4.8 35.75,-2.53 l 504.59,96.14 c 4.86,0.92 9.83,1.12 14.75,0.59 L 1688.96,58 1696,785 H 0 Z"
     fill="#000000"
     fill-opacity="1"
     fill-rule="nonzero"
     clip-path="url(#clipPath3)"
     transform="matrix(1.0124968,0,0,0.99999999,-3.0766725,6.1533382)" />
  <path
     id="Rectangle 82"
     d="m 0,45 431.32,69.03 c 8.07,1.29 16.34,0.58 24.07,-2.06 L 744.95,12.99 c 11.5,-3.93 23.82,-4.8 35.75,-2.53 l 504.59,96.14 c 4.86,0.92 9.83,1.12 14.75,0.59 L 1688.96,65 1696,792 H 0 Z"
     fill="#ffffff"
     fill-opacity="1"
     fill-rule="nonzero"
     clip-path="url(#clipPath2)"
     transform="matrix(1.0124968,0,0,0.99999999,-3.0766725,6.1533382)" />
  <path
     id="Rectangle 76"
     d="m 0,60 429.44,69.01 c 8.1,1.3 16.4,0.59 24.16,-2.07 l 288.14,-98.9 c 11.54,-3.96 23.9,-4.84 35.88,-2.55 l 502.31,96.1 c 4.88,0.93 9.87,1.13 14.81,0.59 L 1681.99,80 1689,807 H 0 Z"
     fill="#000000"
     fill-opacity="1"
     fill-rule="nonzero"
     clip-path="url(#clipPath1)"
     transform="matrix(1.0124968,0,0,0.99999999,-3.0766725,6.1533382)" />
</svg>
